<svg width="146" height="13" viewBox="0 0 146 13" fill="none" xmlns="http://www.w3.org/2000/svg"><path d="M3.42 10.09V2.04h2.03v8.05H3.42Zm-3-3.01V5.05h8.04v2.03H.41Zm10.39 4.78 4.82-9.55v-.08h-5.62v-2h8.17v2.03l-4.83 9.6H10.8Zm17.1.16c-.88 0-1.65-.14-2.34-.43a3.9 3.9 0 0 1-1.6-1.18 2.67 2.67 0 0 1-.57-1.68c0-.49.1-.93.33-1.34a3 3 0 0 1 2.2-1.54v-.08a2.6 2.6 0 0 1-2.1-2.58c0-.6.18-1.14.53-1.6.35-.48.83-.85 1.45-1.12.61-.27 1.32-.4 2.1-.4s1.48.13 2.1.4c.61.27 1.1.65 1.45 1.12.35.47.53 1 .53 1.6a2.6 2.6 0 0 1-2.09 2.58v.08c.47.08.9.25 1.27.52a2.97 2.97 0 0 1 1.26 2.36c0 .63-.2 1.19-.59 1.68-.39.5-.92.9-1.6 1.18-.68.29-1.46.43-2.33.43Zm0-1.81c.39 0 .73-.07 1.02-.21.3-.14.52-.34.68-.6.17-.24.25-.54.25-.87 0-.33-.08-.63-.25-.89-.17-.26-.4-.46-.7-.61-.29-.15-.62-.23-1-.23s-.71.08-1 .23a1.6 1.6 0 0 0-.95 1.5c0 .33.08.63.24.88.16.25.4.45.69.59.3.14.63.21 1.02.21Zm0-5.2c.32 0 .61-.06.87-.2a1.5 1.5 0 0 0 .81-1.36 1.46 1.46 0 0 0-.8-1.34c-.26-.13-.55-.2-.88-.2-.33 0-.62.07-.88.2-.25.13-.45.31-.6.54-.13.23-.2.5-.2.8 0 .3.07.58.21.81.15.24.35.42.6.55.25.14.54.2.87.2Zm10.8 7.1c-.98 0-1.82-.24-2.52-.72a4.55 4.55 0 0 1-1.62-2.07c-.38-.9-.56-2-.56-3.27s.19-2.35.56-3.24c.38-.9.92-1.58 1.62-2.04.7-.47 1.55-.7 2.52-.7s1.8.23 2.51.7c.7.47 1.25 1.15 1.63 2.04.37.9.56 1.97.56 3.24 0 1.28-.2 2.37-.57 3.27-.38.9-.91 1.6-1.61 2.08-.7.47-1.54.71-2.52.71Zm0-2.04c.67 0 1.2-.33 1.6-1a6 6 0 0 0 .59-3.02c0-.88-.1-1.62-.28-2.2a2.84 2.84 0 0 0-.76-1.33c-.32-.3-.7-.44-1.15-.44-.66 0-1.2.33-1.6 1-.39.66-.6 1.65-.6 2.97 0 .9.1 1.64.27 2.24.18.6.44 1.04.77 1.34.33.3.72.44 1.16.44Zm11.01 2.04c-.97 0-1.81-.24-2.52-.72a4.55 4.55 0 0 1-1.62-2.07c-.37-.9-.56-2-.55-3.27 0-1.27.18-2.35.56-3.24.38-.9.92-1.58 1.62-2.04.7-.47 1.54-.7 2.51-.7.98 0 1.81.23 2.52.7.7.47 1.24 1.15 1.62 2.04.38.9.57 1.97.56 3.24 0 1.28-.19 2.37-.56 3.27-.38.9-.92 1.6-1.62 2.08-.7.47-1.54.71-2.52.71Zm0-2.04c.67 0 1.2-.33 1.6-1a6 6 0 0 0 .6-3.02c0-.88-.1-1.62-.28-2.2a2.84 2.84 0 0 0-.76-1.33c-.33-.3-.71-.44-1.16-.44-.66 0-1.19.33-1.59 1-.4.66-.6 1.65-.6 2.97 0 .9.09 1.64.27 2.24.18.6.44 1.04.77 1.34.32.3.71.44 1.15.44Zm14.41 1.95a5 5 0 0 1-2.15-.45c-.62-.3-1.12-.7-1.49-1.22a3.14 3.14 0 0 1-.57-1.78h2.39c.02.45.21.81.56 1.1.36.28.78.42 1.26.42.39 0 .73-.09 1.02-.26.3-.17.54-.42.7-.72.17-.31.26-.67.26-1.07s-.09-.77-.26-1.08c-.17-.31-.41-.55-.71-.73-.3-.17-.65-.26-1.04-.26-.34 0-.68.07-1 .2a1.8 1.8 0 0 0-.74.58l-2.19-.4.55-6.13h7.12v2.01h-5.09l-.3 2.92h.07c.2-.29.51-.53.92-.72.42-.19.88-.28 1.39-.28A3.57 3.57 0 0 1 68.01 6c.31.57.47 1.23.47 1.98a3.85 3.85 0 0 1-2.07 3.52c-.66.34-1.42.52-2.28.52Zm10.31 0a5 5 0 0 1-2.14-.45c-.63-.3-1.13-.7-1.5-1.22a3.14 3.14 0 0 1-.57-1.78h2.39c.03.45.22.81.57 1.1.35.28.77.42 1.25.42.39 0 .73-.09 1.03-.26.3-.17.53-.42.7-.72.17-.31.25-.67.25-1.07s-.09-.77-.26-1.08c-.17-.31-.4-.55-.71-.73-.3-.17-.65-.26-1.04-.26-.34 0-.67.07-1 .2a1.8 1.8 0 0 0-.74.58l-2.19-.4.55-6.13h7.12v2.01h-5.09l-.3 2.92h.07c.2-.29.51-.53.93-.72.4-.19.87-.28 1.38-.28A3.57 3.57 0 0 1 78.32 6c.32.57.47 1.23.47 1.98a3.85 3.85 0 0 1-2.07 3.52c-.66.34-1.41.52-2.28.52Zm10.32 0a5 5 0 0 1-2.15-.45c-.63-.3-1.12-.7-1.5-1.22a3.14 3.14 0 0 1-.56-1.78h2.38c.03.45.22.81.57 1.1.35.28.77.42 1.26.42.38 0 .72-.09 1.02-.26.3-.17.53-.42.7-.72.17-.31.25-.67.25-1.07s-.08-.77-.26-1.08c-.17-.31-.4-.55-.7-.73-.31-.17-.66-.26-1.05-.26-.34 0-.67.07-1 .2a1.8 1.8 0 0 0-.74.58l-2.18-.4.55-6.13h7.11v2.01h-5.08l-.3 2.92h.06c.2-.29.52-.53.93-.72.41-.19.87-.28 1.38-.28A3.57 3.57 0 0 1 88.63 6c.32.57.48 1.23.47 1.98a3.85 3.85 0 0 1-2.07 3.52c-.65.34-1.41.52-2.27.52Zm11.52-6.94V7h-5.3V5.08h5.3Zm6.38 6.94c-.88 0-1.65-.14-2.34-.43a3.9 3.9 0 0 1-1.6-1.18 2.67 2.67 0 0 1-.57-1.68c0-.49.1-.93.33-1.34a3 3 0 0 1 2.2-1.54v-.08a2.6 2.6 0 0 1-2.1-2.58c0-.6.18-1.14.53-1.6.35-.48.83-.85 1.45-1.12.61-.27 1.31-.4 2.1-.4.78 0 1.48.13 2.1.4.61.27 1.1.65 1.45 1.12.35.47.53 1 .53 1.6a2.58 2.58 0 0 1-2.09 2.58v.08c.47.08.9.25 1.27.52a2.97 2.97 0 0 1 1.26 2.36c0 .63-.2 1.19-.59 1.68-.39.5-.92.9-1.6 1.18-.68.29-1.46.43-2.33.43Zm0-1.81c.39 0 .73-.07 1.02-.21.3-.14.52-.34.68-.6.17-.24.25-.54.25-.87 0-.33-.08-.63-.25-.89-.17-.26-.4-.46-.7-.61-.29-.15-.62-.23-1-.23s-.71.08-1 .23a1.6 1.6 0 0 0-.95 1.5c0 .33.08.63.24.88.16.25.4.45.69.59.3.14.63.21 1.02.21Zm0-5.2c.33 0 .62-.06.87-.2a1.5 1.5 0 0 0 .81-1.36 1.45 1.45 0 0 0-.8-1.34c-.26-.13-.55-.2-.88-.2-.33 0-.62.07-.88.2-.25.13-.45.31-.6.54-.13.23-.2.5-.2.8 0 .3.07.58.21.81.15.24.35.42.6.55.25.14.54.2.87.2Zm10.7 7c-.6 0-1.17-.1-1.73-.3a3.94 3.94 0 0 1-1.49-.95 4.65 4.65 0 0 1-1.05-1.77 8.27 8.27 0 0 1-.38-2.69c0-.98.12-1.85.34-2.62.22-.77.54-1.43.95-1.96a4.18 4.18 0 0 1 3.45-1.66c.77 0 1.46.15 2.05.46a3.79 3.79 0 0 1 2.1 2.95h-2.43c-.1-.4-.3-.72-.6-.95a1.8 1.8 0 0 0-1.12-.35 1.9 1.9 0 0 0-1.73.99 5.34 5.34 0 0 0-.6 2.69h.08c.18-.35.41-.64.7-.88.3-.25.65-.44 1.02-.57.39-.13.8-.2 1.22-.2a3.48 3.48 0 0 1 3.1 1.82c.32.57.47 1.21.47 1.94a4 4 0 0 1-.55 2.1c-.36.62-.87 1.1-1.52 1.45-.66.34-1.41.51-2.28.5Zm0-1.92a1.92 1.92 0 0 0 1.71-1.02c.17-.3.26-.66.26-1.04 0-.39-.09-.73-.26-1.04a1.91 1.91 0 0 0-1.7-1 1.95 1.95 0 0 0-1.84 1.25 2.1 2.1 0 0 0 .1 1.82 1.89 1.89 0 0 0 1.72 1.02Zm11.56-5.01V7h-5.3V5.08h5.3Zm1.71 6.78v-1.77l4.14-3.84c.35-.34.65-.65.89-.92s.43-.54.55-.8c.13-.27.19-.55.19-.86 0-.34-.08-.63-.24-.88a1.53 1.53 0 0 0-.63-.57 2 2 0 0 0-.92-.2c-.35 0-.66.06-.93.2-.26.15-.47.36-.61.63a2 2 0 0 0-.22.96h-2.33a3.46 3.46 0 0 1 1.97-3.28c.61-.31 1.33-.47 2.14-.47a5 5 0 0 1 2.18.45c.62.29 1.1.7 1.45 1.21a3.41 3.41 0 0 1 .25 3.09c-.17.42-.47.9-.91 1.42-.44.52-1.06 1.14-1.86 1.87l-1.7 1.67v.08h4.89v2h-8.3Zm14.42.16c-.88 0-1.65-.14-2.34-.43a3.9 3.9 0 0 1-1.6-1.18 2.68 2.68 0 0 1-.57-1.68c0-.49.1-.93.33-1.34a3 3 0 0 1 2.2-1.54v-.08a2.6 2.6 0 0 1-2.1-2.58c0-.6.18-1.14.53-1.6.35-.48.83-.85 1.45-1.12.62-.27 1.32-.4 2.1-.4s1.48.13 2.1.4c.61.27 1.1.65 1.45 1.12.35.47.53 1 .53 1.6a2.6 2.6 0 0 1-2.09 2.58v.08c.47.08.9.25 1.27.52a2.96 2.96 0 0 1 1.26 2.36c0 .63-.2 1.19-.59 1.68-.38.5-.92.9-1.6 1.18-.68.29-1.45.43-2.33.43Zm0-1.81c.39 0 .73-.07 1.02-.21.3-.14.52-.34.68-.6.17-.24.25-.54.25-.87 0-.33-.08-.63-.25-.89-.17-.26-.4-.46-.7-.61-.29-.15-.62-.23-1-.23s-.71.08-1 .23a1.61 1.61 0 0 0-.95 1.5c0 .33.08.63.24.88.16.25.4.45.69.59.3.14.63.21 1.02.21Zm0-5.2c.32 0 .61-.06.87-.2a1.5 1.5 0 0 0 .81-1.36 1.45 1.45 0 0 0-.8-1.34c-.25-.13-.55-.2-.88-.2-.33 0-.62.07-.88.2-.25.13-.45.31-.6.54-.13.23-.2.5-.2.8 0 .3.07.58.21.81.15.24.35.42.6.55.25.14.54.2.87.2Z" fill="#2D3440"/></svg>